<svg id="Group_108" data-name="Group 108" xmlns="http://www.w3.org/2000/svg" xmlns:xlink="http://www.w3.org/1999/xlink" width="60" height="60" viewBox="0 0 60 60">
  <defs>
    <clipPath id="clip-path">
      <rect id="Rectangle_133" data-name="Rectangle 133" width="28.786" height="39.109" fill="#fff"/>
    </clipPath>
  </defs>
  <circle id="Ellipse_1" data-name="Ellipse 1" cx="30" cy="30" r="30" fill="#0b3b26"/>
  <g id="Group_3" data-name="Group 3" transform="translate(15.607 10.143)" clip-path="url(#clip-path)">
    <path id="Path_67" data-name="Path 67" d="M28.786,14.42A14.393,14.393,0,1,0,3.2,23.441V38.349a.726.726,0,0,0,.965.683l10.227-3.513L24.62,39.068h0a.726.726,0,0,0,.965-.683V23.442a14.311,14.311,0,0,0,3.2-9.022ZM14.393,1.479a12.92,12.92,0,0,1,9.392,21.811c-.1.109-.2.218-.3.319s-.4.37-.6.544l-.392.334c-.2.16-.406.312-.617.457l-.472.319q-.3.2-.61.37l-.566.3c-.2.1-.392.2-.6.283s-.442.181-.675.268-.37.145-.552.2-.522.152-.791.225l-.494.131c-.312.065-.624.109-.936.152l-.406.065h0a12.544,12.544,0,0,1-2.751,0l-.407-.065c-.312-.044-.624-.087-.936-.152l-.494-.131c-.268-.065-.53-.138-.791-.225s-.37-.131-.559-.2-.45-.174-.675-.268-.4-.189-.6-.283l-.566-.3q-.312-.182-.61-.37l-.479-.326q-.316-.218-.61-.457l-.4-.341c-.2-.174-.407-.356-.6-.544s-.2-.218-.312-.326H5A12.92,12.92,0,0,1,14.393,1.479Zm9.74,35.849-9.5-3.259a.726.726,0,0,0-.479,0l-9.5,3.259V24.989c.145.131.3.247.442.37l.276.232c.261.211.53.407.8.6l.319.218c.268.174.537.341.813.494l.385.218c.261.138.53.268.806.385l.457.2c.261.109.522.2.784.29l.522.181c.261.08.522.138.791.2s.37.094.559.131.581.094.871.131c.167,0,.334.058.508.072s.457,0,.682.036v2.417a.726.726,0,0,0,1.452,0v-2.4a4.243,4.243,0,0,0,.682-.036c.225-.036.334-.051.508-.072.29-.036.588-.08.871-.131s.37-.087.559-.131.53-.124.791-.2l.522-.174c.261-.087.53-.181.784-.29l.457-.2c.276-.124.544-.247.806-.392l.377-.211c.276-.159.552-.319.82-.494l.319-.218c.276-.189.544-.392.8-.6l.268-.225c.145-.124.3-.24.442-.37Z" transform="translate(0 0)" fill="#fff"/>
    <path id="Path_68" data-name="Path 68" d="M51.208,70.137a.737.737,0,0,0,1.03,0l10.3-10.285a.726.726,0,0,0,0-1.031l-2.577-2.569a.726.726,0,0,0-1.024,0l-7.178,7.186L49.705,61.26a.72.72,0,0,0-1.06,0l-2.584,2.714a.726.726,0,0,0,0,1.009Zm-2.04-7.353,2.039,2.178h0a.725.725,0,0,0,1.045,0l7.193-7.2,1.546,1.546L51.723,68.6,47.6,64.468Z" transform="translate(-39.914 -48.778)" fill="#fff"/>
  </g>
</svg>
