<svg id="Group_119" data-name="Group 119" xmlns="http://www.w3.org/2000/svg" xmlns:xlink="http://www.w3.org/1999/xlink" width="693.07" height="633.071" viewBox="0 0 693.07 633.071">
  <defs>
    <clipPath id="clip-path">
      <rect id="Rectangle_142" data-name="Rectangle 142" width="693.07" height="633.071" fill="none" stroke="#dfdfdf" stroke-width="1"/>
    </clipPath>
  </defs>
  <g id="Group_118" data-name="Group 118" clip-path="url(#clip-path)">
    <path id="Path_90" data-name="Path 90" d="M252.635,275.3c-51.4-.8-73,35.291-47.995,80.21L297.8,522.852c25.006,44.918,67.063,45.575,93.46,1.459l98.344-164.354c26.4-44.115,5.937-80.866-45.466-81.668Zm12.424-39.439c-59-13.31-92.566,23.05-74.594,80.8L257.422,531.81c17.972,57.749,66.244,68.639,107.271,24.2L517.54,390.448c41.027-44.44,26.322-91.689-32.678-105Zm23.714-42.394c-64.746-29.512-112.144,4.293-105.329,75.12L208.832,532.46c6.815,70.828,59.789,94.974,117.72,53.658L542.38,432.193c57.93-41.316,52.355-99.266-12.391-128.778Zm37.571-43.128c-67.455-49.572-130.175-22.055-139.379,61.149L152.68,521.471c-9.2,83.2,45.99,123.763,122.647,90.13l285.6-125.3c76.658-33.632,84.187-101.709,16.732-151.281Zm53.733-40.61C314.351,36.384,235.494,52.949,204.839,146.54L90.628,495.223c-30.656,93.592,23.119,153.6,119.5,133.353L569.2,553.145c96.38-20.247,121.462-96.822,55.737-170.167ZM451.95,75.99c-57.932-100.341-152.729-100.341-210.662,0L25.459,449.819C-32.472,550.16,14.926,632.256,130.79,632.256H562.45c115.864,0,163.262-82.1,105.331-182.438Z" transform="translate(-0.085 -0.085)" fill="none" stroke="#dfdfdf" stroke-width="1.469"/>
  </g>
</svg>
